<svg id="_x31__x2C_5" enable-background="new 0 0 24 24" height="512" viewBox="0 0 24 24" width="512" xmlns="http://www.w3.org/2000/svg"><path d="m23.25 4.5v.75h-22.5v-.75c0-1.55 1.26-2.81 2.81-2.81h16.88c1.55 0 2.81 1.26 2.81 2.81z" fill="#607d8b"/><path d="m23.25 5.25v15.87c0 .62-.5 1.13-1.12 1.13h-20.26c-.62 0-1.12-.51-1.12-1.13v-15.87z" fill="#fff"/><path d="m11.925 19.4h-5.85c-.868 0-1.575-.707-1.575-1.575v-7.65c0-.868.707-1.575 1.575-1.575h5.85c.868 0 1.575.707 1.575 1.575v7.65c0 .868-.707 1.575-1.575 1.575z" fill="#90caf9"/><path d="m11.925 19.651h-5.85c-.868 0-1.575-.707-1.575-1.575v-1.269c0-.179.071-.351.198-.477l1.593-1.593c.656-.657 1.727-.658 2.386 0 .086.087.189.1.243.1.05 0 .176-.012.261-.12l.615-.769c.594-.757 1.862-.761 2.463.004l1.093 1.363c.096.12.149.269.149.422v2.34c-.001.868-.708 1.574-1.576 1.574z" fill="#8bc34a"/><path d="m21.25 23h-18.5c-1.517 0-2.75-1.233-2.75-2.75v-16.5c0-1.517 1.233-2.75 2.75-2.75h18.5c1.517 0 2.75 1.233 2.75 2.75v16.5c0 1.517-1.233 2.75-2.75 2.75zm-18.5-20.5c-.689 0-1.25.561-1.25 1.25v16.5c0 .689.561 1.25 1.25 1.25h18.5c.689 0 1.25-.561 1.25-1.25v-16.5c0-.689-.561-1.25-1.25-1.25z"/><path d="m23.25 6h-22.5c-.414 0-.75-.336-.75-.75s.336-.75.75-.75h22.5c.414 0 .75.336.75.75s-.336.75-.75.75z"/><path d="m18 17.501c-.414 0-.75-.336-.75-.75v-6c0-.414.336-.75.75-.75s.75.336.75.75v6c0 .415-.336.75-.75.75z"/><path d="m18.003 18.001c-.192 0-.384-.073-.53-.22l-2.003-2.003c-.293-.293-.293-.768 0-1.061s.768-.293 1.061 0l1.473 1.473 1.47-1.47c.293-.293.768-.293 1.061 0s.293.768 0 1.061l-2 2c-.148.147-.34.22-.532.22z"/><path d="m4.75 17.59c-.192 0-.384-.073-.53-.22-.293-.293-.293-.768 0-1.061l1.77-1.77c.729-.73 1.92-.731 2.651 0 .096.097.21.111.27.111.056 0 .195-.013.29-.133l.684-.855c.66-.841 2.068-.846 2.736.005l1.215 1.514c.259.323.207.795-.115 1.054-.322.258-.794.208-1.055-.116l-1.22-1.52c-.141-.179-.255-.173-.386-.006l-.684.855c-.651.828-2.034.915-2.797.151-.147-.148-.382-.148-.529.001l-1.77 1.77c-.146.147-.338.22-.53.22z"/><path d="m12.25 20h-6.5c-.965 0-1.75-.785-1.75-1.75v-8.5c0-.965.785-1.75 1.75-1.75h6.5c.965 0 1.75.785 1.75 1.75v8.5c0 .965-.785 1.75-1.75 1.75zm-6.5-10.5c-.138 0-.25.112-.25.25v8.5c0 .138.112.25.25.25h6.5c.138 0 .25-.112.25-.25v-8.5c0-.138-.112-.25-.25-.25z"/></svg>